<svg version="1.2" xmlns="http://www.w3.org/2000/svg" viewBox="0 0 481 214" width="481" height="214">
	<style>
		.s0 { fill: #000000 } 
	</style>
	<path class="s0" d="m80 110.12h-11.46v48.38h-15v-48.38h-8.89v-13.12h8.89v-7.37q-0.05-1.28 0.04-2.56 0.09-1.28 0.33-2.54 0.23-1.26 0.6-2.49 0.37-1.23 0.87-2.41 0.39-0.87 0.89-1.68 0.51-0.81 1.11-1.55 0.6-0.74 1.29-1.4 0.7-0.65 1.47-1.21 0.74-0.51 1.53-0.94 0.79-0.42 1.62-0.76 0.83-0.33 1.7-0.57 0.86-0.25 1.75-0.39 0.91-0.16 1.83-0.28 0.92-0.12 1.84-0.2 0.92-0.08 1.85-0.12 0.92-0.04 1.85-0.04h7.23v13.84h-7.49q-0.46 0-0.91 0.05-0.45 0.05-0.9 0.13-0.44 0.09-0.88 0.22-0.44 0.13-0.86 0.3-0.43 0.16-0.78 0.45-0.35 0.29-0.59 0.68-0.25 0.39-0.35 0.83-0.1 0.45-0.06 0.9v9.11h11.48z"/>
	<path class="s0" d="m92.28 158.62v-88.12h15v88.12z"/>
	<path class="s0" d="m145.61 159.64q-12.32 0-19.55-5.91-7.23-5.91-7.24-17.58v-20.45q0-11.93 7.24-17.9 7.24-5.97 19.55-6 12.32 0 19.5 6 7.18 6 7.17 17.9v20.45q0 11.69-7.17 17.58-7.17 5.89-19.5 5.91zm0-13.46q0.51 0 1.02-0.03 0.52-0.03 1.03-0.08 0.51-0.06 1.01-0.14 0.51-0.08 1.01-0.19 0.49-0.11 0.98-0.25 0.48-0.15 0.95-0.33 0.47-0.19 0.92-0.41 0.46-0.22 0.89-0.48 0.42-0.24 0.81-0.54 0.39-0.29 0.75-0.62 0.35-0.34 0.66-0.72 0.31-0.37 0.58-0.78 0.28-0.47 0.5-0.98 0.21-0.5 0.35-1.04 0.13-0.53 0.19-1.07 0.06-0.55 0.04-1.1v-23q0.02-0.57-0.03-1.14-0.06-0.57-0.2-1.13-0.14-0.55-0.35-1.08-0.21-0.53-0.5-1.03-0.27-0.42-0.58-0.81-0.31-0.39-0.66-0.74-0.35-0.36-0.75-0.67-0.39-0.31-0.81-0.57-0.43-0.27-0.88-0.5-0.45-0.23-0.92-0.43-0.47-0.19-0.96-0.34-0.48-0.14-0.98-0.25-0.5-0.11-1.01-0.2-0.5-0.08-1.01-0.14-0.51-0.05-1.02-0.08-0.52-0.03-1.03-0.03-0.52 0-1.04 0.03-0.52 0.03-1.03 0.09-0.52 0.05-1.03 0.14-0.51 0.08-1.02 0.19-0.51 0.1-1 0.25-0.49 0.15-0.97 0.34-0.48 0.19-0.94 0.42-0.46 0.24-0.9 0.51-0.42 0.26-0.81 0.57-0.39 0.32-0.75 0.67-0.35 0.35-0.66 0.74-0.31 0.39-0.58 0.81-0.29 0.5-0.5 1.03-0.21 0.53-0.35 1.08-0.14 0.56-0.2 1.13-0.05 0.57-0.03 1.14v23q-0.02 0.55 0.04 1.1 0.06 0.54 0.19 1.07 0.14 0.54 0.35 1.04 0.22 0.51 0.5 0.98 0.27 0.41 0.58 0.78 0.31 0.38 0.66 0.71 0.36 0.34 0.75 0.63 0.39 0.29 0.81 0.54 0.44 0.26 0.9 0.48 0.47 0.23 0.94 0.41 0.48 0.19 0.98 0.33 0.49 0.15 0.99 0.25 0.51 0.11 1.02 0.19 0.51 0.08 1.03 0.14 0.51 0.05 1.03 0.08 0.52 0.03 1.04 0.03z"/>
	<path class="s0" d="m195.64 138.18q0.41 0.83 0.91 1.6 0.51 0.77 1.1 1.48 0.6 0.7 1.27 1.33 0.68 0.63 1.42 1.18 0.9 0.63 1.88 1.11 0.99 0.47 2.04 0.78 1.06 0.31 2.15 0.44 1.08 0.13 2.18 0.08 0.48 0 0.96-0.03 0.48-0.02 0.95-0.07 0.48-0.04 0.96-0.12 0.47-0.07 0.94-0.16 0.44-0.08 0.88-0.2 0.43-0.12 0.85-0.27 0.43-0.16 0.84-0.34 0.41-0.18 0.8-0.4 0.35-0.2 0.68-0.43 0.33-0.23 0.64-0.49 0.3-0.27 0.57-0.56 0.28-0.3 0.52-0.62 0.24-0.31 0.43-0.66 0.19-0.35 0.32-0.72 0.12-0.38 0.19-0.76 0.06-0.39 0.06-0.79v-1.27q0-0.33-0.06-0.66-0.06-0.32-0.19-0.62-0.13-0.31-0.32-0.58-0.19-0.27-0.43-0.5-0.27-0.26-0.56-0.49-0.3-0.24-0.61-0.44-0.31-0.21-0.64-0.39-0.33-0.18-0.67-0.33-0.42-0.19-0.85-0.36-0.43-0.16-0.86-0.31-0.44-0.14-0.89-0.26-0.44-0.12-0.89-0.22-1.96-0.44-4-0.82-1-0.14-2-0.31-1-0.16-1.99-0.36-0.99-0.2-1.98-0.43-0.98-0.23-1.96-0.49-1.01-0.26-2-0.6-0.98-0.34-1.94-0.75-0.96-0.42-1.88-0.91-0.92-0.49-1.8-1.05-0.88-0.56-1.69-1.23-0.81-0.67-1.53-1.42-0.72-0.76-1.35-1.6-0.63-0.84-1.15-1.75-0.59-1.13-1.04-2.32-0.44-1.19-0.72-2.43-0.28-1.24-0.4-2.51-0.11-1.27-0.06-2.54-0.03-1.16 0.07-2.31 0.1-1.16 0.33-2.3 0.23-1.13 0.59-2.23 0.36-1.11 0.85-2.16 0.43-0.91 0.98-1.75 0.54-0.85 1.18-1.62 0.64-0.77 1.38-1.46 0.73-0.69 1.54-1.28 0.87-0.61 1.79-1.14 0.92-0.53 1.88-0.98 0.97-0.44 1.97-0.78 1.01-0.35 2.04-0.6 1.18-0.29 2.38-0.51 1.2-0.22 2.41-0.37 1.21-0.14 2.43-0.21 1.21-0.07 2.43-0.06 1.79 0 3.58 0.17 1.78 0.16 3.54 0.5 1.77 0.33 3.49 0.83 1.72 0.49 3.39 1.15 1.65 0.63 3.17 1.53 1.52 0.9 2.86 2.05 1.33 1.15 2.45 2.52 1.12 1.36 1.99 2.9-3.42 2.4-5.44 3.86c-1.35 1-3.12 2.31-5.31 4q-0.53-0.71-1.15-1.34-0.63-0.63-1.32-1.17-0.7-0.55-1.46-1-0.76-0.46-1.57-0.81-0.95-0.45-1.95-0.79-1-0.33-2.03-0.56-1.03-0.22-2.08-0.33-1.05-0.11-2.1-0.1-0.38 0.01-0.75 0.03-0.38 0.02-0.76 0.06-0.37 0.04-0.75 0.1-0.37 0.06-0.74 0.13-0.39 0.08-0.77 0.18-0.38 0.1-0.76 0.23-0.38 0.12-0.74 0.27-0.37 0.15-0.73 0.32-0.33 0.14-0.64 0.32-0.32 0.18-0.61 0.39-0.3 0.2-0.57 0.44-0.27 0.24-0.52 0.5-0.24 0.26-0.42 0.55-0.18 0.3-0.3 0.63-0.13 0.32-0.18 0.67-0.06 0.34-0.05 0.69v0.77q0 2.8 3.17 4 0.91 0.34 1.83 0.63 0.92 0.29 1.85 0.54 0.94 0.25 1.88 0.46 0.95 0.21 1.9 0.37c2.62 0.42 5.34 1 8.16 1.59q1.03 0.23 2.03 0.54 1 0.31 1.97 0.71 0.97 0.4 1.9 0.89 0.93 0.48 1.82 1.04 0.89 0.59 1.71 1.28 0.81 0.69 1.53 1.48 0.72 0.79 1.33 1.66 0.62 0.88 1.12 1.82 2.22 4 2.22 10.76 0.04 1.2-0.07 2.4-0.1 1.19-0.36 2.37-0.25 1.17-0.64 2.31-0.4 1.13-0.93 2.21-0.49 0.94-1.09 1.81-0.6 0.87-1.3 1.67-0.7 0.79-1.48 1.5-0.79 0.71-1.65 1.32-0.92 0.64-1.9 1.19-0.97 0.55-1.99 1-1.03 0.46-2.09 0.82-1.06 0.35-2.15 0.61-1.21 0.29-2.43 0.51-1.22 0.22-2.45 0.37-1.24 0.14-2.48 0.21-1.24 0.07-2.48 0.06-0.96 0-1.93-0.04-0.96-0.04-1.92-0.12-0.96-0.09-1.92-0.21-0.95-0.13-1.9-0.3-0.94-0.17-1.88-0.39-0.93-0.23-1.84-0.51-0.92-0.29-1.81-0.63-0.9-0.34-1.77-0.74-0.85-0.38-1.66-0.83-0.82-0.44-1.6-0.94-0.78-0.5-1.53-1.06-0.74-0.56-1.44-1.17-0.7-0.62-1.34-1.32-0.63-0.69-1.19-1.45-0.56-0.75-1.04-1.56-0.48-0.81-0.87-1.67z"/>
	<path class="s0" d="m253.42 138.18q0.41 0.83 0.91 1.6 0.51 0.77 1.1 1.48 0.6 0.71 1.27 1.34 0.67 0.63 1.42 1.17 0.9 0.63 1.88 1.11 0.99 0.48 2.04 0.78 1.06 0.31 2.15 0.44 1.08 0.13 2.18 0.08 0.48 0 0.96-0.03 0.48-0.02 0.95-0.07 0.48-0.04 0.96-0.12 0.47-0.07 0.94-0.16 0.44-0.08 0.87-0.2 0.44-0.12 0.86-0.27 0.42-0.15 0.83-0.34 0.41-0.18 0.8-0.4 0.35-0.2 0.68-0.43 0.34-0.23 0.64-0.49 0.31-0.27 0.58-0.56 0.28-0.3 0.52-0.62 0.23-0.32 0.41-0.66 0.19-0.35 0.31-0.73 0.12-0.37 0.18-0.76 0.06-0.39 0.05-0.78v-1.27q0.01-0.33-0.05-0.65-0.06-0.32-0.18-0.63-0.13-0.3-0.31-0.57-0.18-0.28-0.41-0.51-0.27-0.26-0.56-0.49-0.3-0.24-0.61-0.44-0.31-0.21-0.64-0.39-0.33-0.18-0.67-0.33-0.42-0.19-0.85-0.35-0.43-0.17-0.87-0.31-0.43-0.15-0.88-0.27-0.44-0.12-0.89-0.22-1.98-0.44-4-0.82-1-0.14-2-0.31-1-0.16-1.99-0.36-1-0.2-1.98-0.43-0.99-0.23-1.97-0.49-1.01-0.26-2-0.6-0.98-0.34-1.94-0.76-0.96-0.41-1.88-0.9-0.92-0.49-1.8-1.05-0.88-0.56-1.69-1.23-0.81-0.67-1.53-1.43-0.72-0.75-1.34-1.59-0.63-0.84-1.15-1.75-0.59-1.13-1.04-2.32-0.44-1.19-0.72-2.43-0.28-1.24-0.4-2.51-0.11-1.27-0.06-2.54-0.03-1.16 0.07-2.31 0.1-1.16 0.33-2.3 0.23-1.13 0.59-2.23 0.36-1.11 0.85-2.16 0.43-0.91 0.97-1.75 0.55-0.85 1.19-1.62 0.64-0.78 1.37-1.46 0.74-0.69 1.55-1.28 0.87-0.61 1.79-1.14 0.92-0.53 1.88-0.98 0.97-0.44 1.97-0.78 1.01-0.35 2.04-0.6 1.18-0.29 2.38-0.51 1.2-0.22 2.41-0.37 1.21-0.14 2.43-0.21 1.21-0.07 2.43-0.06 1.79 0 3.58 0.17 1.78 0.16 3.54 0.5 1.77 0.33 3.49 0.83 1.72 0.49 3.39 1.15 1.65 0.63 3.17 1.53 1.52 0.9 2.86 2.05 1.34 1.15 2.46 2.52 1.12 1.36 1.99 2.9-3.42 2.4-5.44 3.86c-1.35 1-3.12 2.31-5.32 4q-0.53-0.71-1.15-1.34-0.62-0.63-1.32-1.18-0.7-0.54-1.46-1-0.76-0.45-1.57-0.8-0.95-0.45-1.95-0.79-1-0.33-2.03-0.56-1.03-0.22-2.08-0.33-1.05-0.11-2.1-0.1-0.38 0-0.75 0.03-0.38 0.02-0.76 0.06-0.37 0.04-0.75 0.1-0.37 0.05-0.74 0.13-0.39 0.08-0.77 0.18-0.38 0.1-0.76 0.23-0.38 0.12-0.74 0.27-0.37 0.15-0.73 0.32-0.33 0.14-0.64 0.32-0.32 0.18-0.61 0.39-0.3 0.2-0.57 0.44-0.27 0.24-0.52 0.5-0.24 0.26-0.42 0.55-0.18 0.3-0.3 0.63-0.13 0.32-0.18 0.67-0.06 0.34-0.05 0.69v0.77c0 1.87 1 3.2 3.16 4q0.91 0.34 1.83 0.63 0.92 0.29 1.86 0.54 0.93 0.25 1.88 0.46 0.95 0.21 1.9 0.37c2.61 0.42 5.33 1 8.16 1.59q1.02 0.23 2.02 0.54 1 0.31 1.97 0.71 0.97 0.4 1.9 0.89 0.93 0.48 1.82 1.04 0.89 0.59 1.71 1.28 0.81 0.69 1.53 1.48 0.72 0.79 1.34 1.66 0.62 0.88 1.12 1.82 2.21 4 2.21 10.76 0.04 1.2-0.07 2.4-0.11 1.19-0.36 2.37-0.25 1.17-0.65 2.31-0.39 1.13-0.92 2.21-0.49 0.94-1.09 1.81-0.6 0.87-1.3 1.66-0.7 0.8-1.48 1.51-0.79 0.71-1.65 1.32-0.92 0.64-1.9 1.19-0.97 0.55-1.99 1-1.03 0.46-2.09 0.82-1.06 0.35-2.15 0.61-1.21 0.29-2.43 0.51-1.22 0.22-2.45 0.37-1.24 0.14-2.48 0.21-1.24 0.07-2.48 0.06-0.95 0-1.9-0.05-0.95-0.04-1.9-0.13-0.94-0.08-1.88-0.21-0.94-0.13-1.88-0.3-0.94-0.17-1.88-0.39-0.93-0.23-1.84-0.51-0.92-0.29-1.81-0.63-0.9-0.34-1.77-0.74-0.85-0.38-1.66-0.83-0.82-0.44-1.6-0.94-0.78-0.5-1.52-1.06-0.74-0.56-1.44-1.17-0.7-0.62-1.34-1.32-0.63-0.69-1.19-1.45-0.56-0.75-1.04-1.56-0.48-0.81-0.87-1.67z"/>
	<path class="s0" d="m320.59 158.5h-15v-87.75l15-0.25v49.4q2.53-2.92 5-5.59 2.49-2.67 5-5.46 3.3-3.81 6.92-7.87 3.62-4.06 7.05-8h18.66l-23.36 26.28q2.93 4.44 5.84 8.83 2.91 4.39 5.84 8.82 1.53 2.42 3.37 5.21 1.84 2.79 3.68 5.65 1.83 2.85 3.68 5.65l3.37 5.08h-17.88l-17.76-29.59q-1 1.27-2 2.35l-2 2.22-2.73 3-2.73 3z"/>
	<path class="s0" d="m428 101.7v4.74l-34.33-13.44-3.92 13.46h-1.75l-3-15.46q-1.33-0.74-2.59-1.61-1.25-0.87-2.42-1.85-1.16-0.99-2.22-2.09-1.06-1.09-2.01-2.29-0.98-1.25-1.76-2.63-0.79-1.38-1.37-2.86-0.58-1.48-0.95-3.03-0.36-1.55-0.5-3.13c-0.8-8.09-7.92-8.74-7.92-8.74v-1.37c0 0 12.78-11.24 21.19-0.69q0.68 0.87 1.39 1.72 0.7 0.85 1.43 1.68 0.73 0.83 1.48 1.63 0.76 0.81 1.53 1.6c0.52 0.52 21.11 19.27 24.71 22.73z"/>
</svg>