<svg version="1.2" xmlns="http://www.w3.org/2000/svg" viewBox="0 0 186 153" width="186" height="153">
	<style>
		.s0 { fill: #000000 } 
	</style>
	<path id="path4" class="s0" d="m150.88 110.82v8.33l-60.34-23.66-6.88 23.66h-3.12l-5.25-27.17q-2.34-1.3-4.55-2.82-2.2-1.53-4.25-3.26-2.05-1.74-3.91-3.67-1.87-1.92-3.54-4.03-1.7-2.2-3.08-4.63-1.38-2.43-2.39-5.02-1.02-2.6-1.65-5.32-0.64-2.72-0.88-5.5c-1.4-14.23-13.91-15.36-13.91-15.36v-2.38c0 0 22.46-19.75 37.24-1.21q1.19 1.53 2.43 3.02 1.24 1.5 2.52 2.95 1.29 1.46 2.61 2.88 1.32 1.42 2.69 2.8c0 0 37.1 33.87 43.42 40z"/>
</svg>
